# xmcd
#
# Track frame offsets:
#	150
#	22155
#	44022
#	66485
#	89145
#	111475
#	133267
#	153487
#	175022
#	196707
#	223990
#	246395
#
# Disc length: 3597 seconds
#
# Revision: 0
# Processed by: cddbd v1.5.2PL0 Copyright (c) Steve Scherf et al.
# Submitted via: EZCDAudioConverter 1.0.8.1
#
DISCID=c30e0b0c
DTITLE=Gustavo Rodriguez - Septimo Sentido
DYEAR=1995
DGENRE=Salsa
TTITLE0=Celos
TTITLE1=En Esta Noche
TTITLE2=Por Volverte a Ver
TTITLE3=Nunca Te Dejare Ir
TTITLE4=Eres Todo Para Mí
TTITLE5=No Hace Falta Nada
TTITLE6=Mira Mis Ojos
TTITLE7=Al Final de Tanta Espera
TTITLE8=Septimo Sentido
TTITLE9=Gustavo's Mix - Que nunce me falte - Piensalo bien - Como quisiera - P
TTITLE9=erdonemonos - Esperando - Si Supieras
TTITLE10=Ven Amor
TTITLE11=Isi
EXTD=
EXTT0=
EXTT1=
EXTT2=
EXTT3=
EXTT4=
EXTT5=
EXTT6=
EXTT7=
EXTT8=
EXTT9=
EXTT10=
EXTT11=
PLAYORDER=
